<?xml version="1.0" encoding="utf-8"?>
<!-- Generator: Adobe Illustrator 16.0.0, SVG Export Plug-In . SVG Version: 6.00 Build 0)  -->
<!DOCTYPE svg PUBLIC "-//W3C//DTD SVG 1.1//EN" "http://www.w3.org/Graphics/SVG/1.1/DTD/svg11.dtd">
<svg version="1.1" id="图层_1" xmlns="http://www.w3.org/2000/svg" xmlns:xlink="http://www.w3.org/1999/xlink" x="0px" y="0px"
	 width="100px" height="100px" viewBox="0 0 100 100" enable-background="new 0 0 100 100" xml:space="preserve">
<g id="车子">
	<path fill="#CCCCCC" d="M9.091,0h81.818C95.93,0,100,4.071,100,9.091v81.818c0,5.022-4.07,9.091-9.091,9.091H9.091
		C4.072,100,0,95.932,0,90.909V9.091C0,4.071,4.072,0,9.091,0z"/>
	<path fill="#FFFFFF" d="M41.859,18.52c5.929-0.869,10.8-0.831,16.202,0c3.701,0.831,7.439,1.473,11.104,2.492
		c2.683,0.793,4.646,2.682,5.59,5.589c1.511,4.607,3.136,9.177,4.834,13.709c0.304,0.755,1.208,1.888,1.737,1.813
		c3.55-0.416,5.211,1.624,6.307,4.683c0.266,0.944,0.113,1.851,0,2.493c-1.473,0.416-2.943,0.869-4.306,1.247
		c0.188,1.586,0.528,3.21,0.528,4.834c0.074,7.401,0.112,14.843-0.039,22.243c-0.037,1.322-0.756,3.361-1.282,3.701
		c-0.49,0.869-11.255,0.83-12.085,0.227c-2.797-1.888-1.059-5.061-1.965-7.629H31.926c-0.718,2.721-1.133,7.289-1.964,7.629
		c-1.851,0.756-11.82,0.756-12.387,0c-0.755-0.566-1.284-2.795-1.359-4.229c-0.189-3.135-0.076-6.271-0.076-9.403
		c0.038-5.815,0.151-11.633,0.227-17.486c-1.057-0.302-2.53-0.68-4.041-1.095c-0.075-0.567-0.188-1.247,0-2.002
		c1.02-3.21,2.531-5.703,6.42-5.174c0.453,0.076,1.322-0.982,1.586-1.699c1.322-3.625,2.757-7.251,3.701-10.99
		c1.586-6.269,5.929-8.799,11.519-9.895C37.629,19.162,39.744,18.86,41.859,18.52z M25.166,43.37
		c16.806,3.625,32.895,3.701,49.396,0c-1.396-4.456-2.795-8.422-3.813-12.463c-0.906-3.474-3.06-5.174-6.269-5.325
		c-7.817-0.378-15.673-0.642-23.49-0.718c-2.568-0.038-5.212,0.604-7.742,1.247c-1.058,0.264-2.417,1.095-2.757,2.039
		C28.603,32.984,27.017,37.969,25.166,43.37z M28.376,62.29C28.414,62.215,28.376,62.402,28.376,62.29
		c1.359,0,2.757-0.037,4.041-0.377c0.944-0.228,2.115-1.021,2.417-1.851c0.188-0.604-0.68-2.115-1.435-2.455
		c-3.059-1.475-6.231-2.832-9.441-3.928c-1.586-0.566-3.399-0.453-3.89,1.926c-0.755,3.475-0.038,5.438,2.455,5.968
		C24.449,62.025,26.413,62.102,28.376,62.29z M71.92,62.29c1.737-0.226,3.891-0.302,5.93-0.792c2.832-0.682,2.229-3.137,2.152-5.25
		c-0.037-1.813-1.133-3.135-2.682-2.645c-3.891,1.246-7.742,2.72-11.367,4.568c-1.662,0.831-1.059,3.174,0.831,3.626
		C68.332,62.141,69.918,62.102,71.92,62.29z"/>
</g>
</svg>
