<?xml version="1.0" encoding="utf-8"?>
<!-- Generator: Adobe Illustrator 16.0.0, SVG Export Plug-In . SVG Version: 6.00 Build 0)  -->
<!DOCTYPE svg PUBLIC "-//W3C//DTD SVG 1.1//EN" "http://www.w3.org/Graphics/SVG/1.1/DTD/svg11.dtd">
<svg version="1.1" id="图层_1" xmlns="http://www.w3.org/2000/svg" xmlns:xlink="http://www.w3.org/1999/xlink" x="0px" y="0px"
	 width="100px" height="100px" viewBox="0 0 100 100" enable-background="new 0 0 100 100" xml:space="preserve">
<g id="学历">
	<path fill="#DDDDDD" d="M9.091,0h81.818C95.93,0,100,4.071,100,9.091v81.818c0,5.022-4.07,9.091-9.091,9.091H9.091
		C4.072,100,0,95.932,0,90.909V9.091C0,4.071,4.072,0,9.091,0z"/>
	<path fill="#FFFFFF" d="M21.359,49.611l22.462,10.9c2.854,1.386,6.185,1.386,9.039,0l22.461-10.9v19.795
		c0,7.146-5.793,12.939-12.939,12.939H34.305c-7.146,0-12.939-5.794-12.939-12.939V49.611H21.359z M12.665,34.168l32.593-15.824
		c1.904-0.921,4.125-0.921,6.028,0L83.88,34.168c1.293,0.612,1.845,2.156,1.229,3.447c-0.256,0.54-0.689,0.975-1.229,1.23
		L51.286,54.67c-1.902,0.922-4.124,0.922-6.028,0L12.665,38.846c-1.292-0.612-1.843-2.155-1.231-3.446
		C11.689,34.86,12.125,34.425,12.665,34.168z M85.443,43.063c1.863,0,3.371,1.514,3.371,3.377v16.303
		c0,1.786-1.447,3.235-3.233,3.235h-0.278c-1.787,0-3.234-1.449-3.234-3.235V46.441C82.066,44.578,83.582,43.063,85.443,43.063z"/>
</g>
</svg>
