<?xml version="1.0" encoding="utf-8"?>
<!-- Generator: Adobe Illustrator 16.0.0, SVG Export Plug-In . SVG Version: 6.00 Build 0)  -->
<!DOCTYPE svg PUBLIC "-//W3C//DTD SVG 1.1//EN" "http://www.w3.org/Graphics/SVG/1.1/DTD/svg11.dtd">
<svg version="1.1" id="图层_1" xmlns="http://www.w3.org/2000/svg" xmlns:xlink="http://www.w3.org/1999/xlink" x="0px" y="0px"
	 width="100px" height="100px" viewBox="0 0 100 100" enable-background="new 0 0 100 100" xml:space="preserve">
<g id="邮箱">
	<path fill="#CCCCCC" d="M9.091,0h81.818C95.93,0,100,4.071,100,9.091v81.818c0,5.022-4.07,9.091-9.091,9.091H9.091
		C4.072,100,0,95.932,0,90.909V9.091C0,4.071,4.072,0,9.091,0z"/>
	<path fill="#FFFFFF" d="M87.339,74.811L64.823,48.623l22.543-23.355c0.159,0.482,0.271,0.987,0.271,1.519v46.428
		C87.639,73.773,87.518,74.307,87.339,74.811L87.339,74.811z M57.462,48.409l-7.466,5.846l-7.441-5.832l-3.779-2.957L16.1,22.007
		c0.469-0.135,0.954-0.23,1.465-0.23h64.871c0.513,0,0.994,0.096,1.461,0.23L61.234,45.449L57.462,48.409L57.462,48.409z
		 M12.66,74.811c-0.19-0.513-0.291-1.054-0.298-1.597V26.786c0-0.531,0.111-1.036,0.272-1.519l22.554,23.365L12.66,74.811
		L12.66,74.811z M49.996,60.234l11.05-8.655l22.793,26.43c-0.456,0.136-0.93,0.208-1.403,0.216H17.564
		c-0.487,0-0.953-0.09-1.402-0.211l22.804-26.421L49.996,60.234L49.996,60.234z"/>
</g>
</svg>
