<?xml version="1.0" encoding="utf-8"?>
<!-- Generator: Adobe Illustrator 16.0.0, SVG Export Plug-In . SVG Version: 6.00 Build 0)  -->
<!DOCTYPE svg PUBLIC "-//W3C//DTD SVG 1.1//EN" "http://www.w3.org/Graphics/SVG/1.1/DTD/svg11.dtd">
<svg version="1.1" id="图层_1" xmlns="http://www.w3.org/2000/svg" xmlns:xlink="http://www.w3.org/1999/xlink" x="0px" y="0px"
	 width="100px" height="100px" viewBox="0 0 100 100" enable-background="new 0 0 100 100" xml:space="preserve">
<g id="婚姻状况">
	<path fill="#CCCCCC" d="M9.091,0h81.818C95.93,0,100,4.071,100,9.091v81.818c0,5.022-4.07,9.091-9.091,9.091H9.091
		C4.072,100,0,95.932,0,90.909V9.091C0,4.071,4.072,0,9.091,0z"/>
	<path fill="#FFFFFF" d="M62.448,19.28c3.223,0,5.838,2.614,5.838,5.837c0,3.223-2.615,5.837-5.838,5.837
		c-3.224,0-5.837-2.614-5.837-5.837C56.611,21.894,59.225,19.28,62.448,19.28L62.448,19.28z M34.354,23.961
		c2.896-0.065,5.247,2.349,5.247,5.247c0,2.897-2.353,5.026-5.401,5.015c-2.405-0.008-3.524-1.286-4.11-1.531
		c-0.928-0.388-2.692-1.572-3.632-2.455c0.423,0.183,1.512,0.444,1.151,0.229c-1.32-0.789-3.176-2.818-2.181-2.269
		c0.859,0.476,1.38,1.054,2.344,1.047c0.41-0.003-1.307-1.068-1.742-1.712c-0.606-0.898,1.865,1.042,3.12,0.993
		C29.454,26.324,31.18,24.033,34.354,23.961L34.354,23.961z M17.854,54.968c-0.692-9.056,7.188-18.786,16.94-18.856
		c-4.162,1.008-7.59,3.02-9.279,5.729c4.446-4.328,9.953-6.254,17.009-4.672c-10.566,0.148-15.307,5.412-17.032,9.706
		c5.315-6.491,11.546-10.437,20.024-8.127c-11.255,0.79-17.176,7.179-16.776,15.214c0.51,6.826,5.72,11.084,13.841,10.972
		c7.735-0.145,12.933-4.971,15.978-13.138c0.77,9.968-7.762,19.958-19.761,20.545C26.502,72.359,18.645,65.436,17.854,54.968
		L17.854,54.968z M46.316,61.732c2.389,0.396,4.601,0.113,6.877-2.078c1.912-1.994,3.236-3.922,3.656-5.498
		C53.414,57.751,49.699,60.26,46.316,61.732L46.316,61.732z M41.081,56.898l4.187-0.02c4.939-14.17,19.121-14.497,22.378-8.033
		c4.299,12.576-9.375,26.181-32.041,31.535c5.915-0.051,12.568-2.011,19.446-4.639c-3.021,2.668-7.877,3.82-12.502,4.976
		c7.612-0.405,13.739-1.685,23.866-7.815c-3.083,2.336-6.493,4.348-10.127,6.133c14.592-5.285,25.746-14.213,25.896-28.533
		c-0.354-16.632-20.172-22.648-32.81-10.759c0.382-1.997,5.354-4.854,10.461-6.85c-9.004,1.254-19.958,10.457-19.058,18.811
		C42.101,53.023,42.458,53.621,41.081,56.898L41.081,56.898z"/>
</g>
</svg>
