<?xml version="1.0" encoding="utf-8"?>
<!-- Generator: Adobe Illustrator 16.0.0, SVG Export Plug-In . SVG Version: 6.00 Build 0)  -->
<!DOCTYPE svg PUBLIC "-//W3C//DTD SVG 1.1//EN" "http://www.w3.org/Graphics/SVG/1.1/DTD/svg11.dtd">
<svg version="1.1" id="图层_1" xmlns="http://www.w3.org/2000/svg" xmlns:xlink="http://www.w3.org/1999/xlink" x="0px" y="0px"
	 width="486.523px" height="200px" viewBox="0 0 486.523 200" enable-background="new 0 0 486.523 200" xml:space="preserve">
<g id="_x30__1_">
	<g>
		<path fill="#C9C9C9" d="M386.404-0.196H100.118C44.972-0.167,0.278,44.672,0.249,99.996v100.199h386.155
			c55.164,0,99.87-44.859,99.87-100.199C486.274,44.664,441.568-0.196,386.404-0.196z"/>
	</g>
</g>
<g>
	<g>
		<path fill="#FFFFFF" d="M76.903,88.493c0.505,1.638,1.292,2.535,2.363,2.691c1.071,0.158,2.14-0.109,3.212-0.802
			c1.323-0.945,2.296-2.015,2.926-3.211c0.692-1.135,0.992-2.125,0.897-2.977c-0.092-0.849-0.612-1.81-1.558-2.88
			c-2.078-2.329-6.014-5.007-11.807-8.031c-0.505-0.25-1.07-0.124-1.701,0.379c-0.63,0.504-0.817,1.007-0.563,1.511
			c1.445,2.395,2.675,4.676,3.682,6.848C75.361,84.194,76.212,86.351,76.903,88.493z M144.632,91.609h-20.12
			c1.005-0.629,2.109-1.464,3.306-2.503c1.194-1.04,2.393-2.125,3.589-3.26c1.197-1.133,2.298-2.25,3.306-3.353
			c1.007-1.1,1.796-2.031,2.362-2.786c1.007-1.447,0.817-2.549-0.566-3.306c-0.819-0.503-1.762-0.976-2.834-1.417
			c-1.071-0.44-2.08-0.818-3.023-1.134c-2.079-0.568-3.37-0.063-3.875,1.512c-0.502,1.7-1.225,3.952-2.17,6.753
			c-0.945,2.803-2.143,5.747-3.589,8.832c-0.129,0.252-0.095,0.471,0.095,0.661h-2.363v-19.93h22.198
			c0.379,0,0.74-0.157,1.086-0.473c0.347-0.314,0.521-0.692,0.521-1.133v-1.227c0-0.379-0.174-0.741-0.521-1.087
			c-0.346-0.346-0.707-0.52-1.086-0.52h-21.724c1.133-0.691,2.234-1.465,3.306-2.314c1.07-0.851,1.982-1.685,2.739-2.503
			c0.627-0.692,0.863-1.353,0.709-1.983c-0.159-0.63-0.68-1.102-1.561-1.417c-0.694-0.189-1.699-0.441-3.021-0.756
			s-2.396-0.566-3.212-0.755c-1.953-0.314-3.116,0.283-3.496,1.794c-0.251,0.693-0.646,1.795-1.181,3.306
			c-0.536,1.512-1.12,3.055-1.748,4.629H94.85c0.631-0.691,1.136-1.574,1.512-2.644c0.692-1.638,0.251-2.929-1.322-3.874
			c-0.566-0.314-1.307-0.644-2.219-0.991c-0.912-0.346-1.875-0.677-2.88-0.993c-1.01-0.314-2.001-0.597-2.978-0.85
			c-0.976-0.251-1.84-0.439-2.598-0.567c-0.754-0.124-1.369,0.064-1.84,0.567c-0.472,0.504-0.52,1.008-0.144,1.51
			c0.945,1.261,1.922,2.521,2.931,3.78c1.004,1.259,1.887,2.613,2.644,4.061h-20.78c-0.443,0-0.82,0.174-1.135,0.52
			c-0.315,0.346-0.472,0.708-0.472,1.087v1.227c0,0.441,0.157,0.818,0.472,1.133c0.315,0.316,0.691,0.473,1.135,0.473h22.292v19.931
			H63.492c-0.44,0-0.82,0.174-1.132,0.519c-0.318,0.348-0.474,0.708-0.474,1.087v1.512c0,0.441,0.156,0.818,0.474,1.134
			c0.313,0.315,0.692,0.472,1.132,0.472h81.14c0.379,0,0.738-0.157,1.086-0.472c0.343-0.315,0.518-0.692,0.518-1.134v-1.512
			c0-0.378-0.174-0.739-0.518-1.087C145.37,91.783,145.011,91.609,144.632,91.609z M107.888,91.609h-7.746V71.678h7.746V91.609z
			 M132.164,101.811h-5.763c-0.695,0-1.322,0.269-1.889,0.804c-0.568,0.534-0.881,1.149-0.945,1.842H84.273
			c-0.128-0.692-0.459-1.29-0.992-1.795c-0.535-0.503-1.15-0.757-1.842-0.757h-5.763c-0.694,0-1.337,0.301-1.935,0.897
			c-0.6,0.599-0.897,1.244-0.897,1.938v34.479c0,0.69,0.297,1.335,0.897,1.935c0.597,0.599,1.24,0.897,1.935,0.897h5.763
			c0.692,0,1.337-0.3,1.937-0.897c0.597-0.6,0.897-1.243,0.897-1.935v-1.891h39.294v1.891c0,0.69,0.3,1.335,0.899,1.935
			c0.595,0.599,1.24,0.897,1.935,0.897h5.763c0.692,0,1.337-0.3,1.937-0.897c0.597-0.6,0.897-1.243,0.897-1.935v-34.573
			c0-0.69-0.3-1.338-0.897-1.936C133.501,102.109,132.855,101.811,132.164,101.811z M123.567,132.791H84.273v-9.633h39.294V132.791z
			 M123.567,118.623H84.273v-9.634h39.294V118.623z M184.115,67.239h33.911c-1.638,1.888-3.56,4-5.761,6.329
			c-2.017-0.566-4.364-1.102-7.039-1.606c-2.677-0.502-5.273-0.975-7.792-1.417c-0.441-0.061-0.851,0.159-1.229,0.662
			c-0.188,0.316-0.299,0.646-0.33,0.993c-0.033,0.347,0.077,0.583,0.33,0.708c2.646,1.386,4.943,2.645,6.896,3.778
			c1.95,1.134,3.777,2.3,5.478,3.496h-14.265c-0.566-0.882-1.322-1.324-2.265-1.324h-5.007c-0.695,0-1.322,0.285-1.889,0.851
			c-0.568,0.566-0.85,1.197-0.85,1.89v43.356c0,0.691,0.282,1.32,0.85,1.889c0.567,0.566,1.194,0.852,1.889,0.852h5.007
			c0.691,0,1.322-0.284,1.888-0.852c0.567-0.566,0.85-1.197,0.85-1.889v-13.036h10.579v11.808c0,0.694,0.284,1.322,0.85,1.891
			c0.567,0.566,1.197,0.851,1.892,0.851h4.723c0.692,0,1.337-0.284,1.934-0.851c0.6-0.567,0.9-1.195,0.9-1.891v-11.808h10.484v2.929
			c0,1.448-0.238,2.426-0.709,2.928c-0.472,0.504-1.276,0.851-2.409,1.041l-2.454,0.472c-0.695,0.126-1.105,0.362-1.23,0.707
			c-0.125,0.349-0.061,0.837,0.19,1.465c0.25,0.63,0.66,1.515,1.227,2.644c0.569,1.136,1.007,1.955,1.322,2.457
			c0.882,1.387,2.078,1.983,3.59,1.795c1.136-0.125,2.203-0.313,3.213-0.564c1.005-0.251,1.888-0.536,2.645-0.854
			c2.078-0.879,3.446-2.105,4.108-3.683c0.661-1.573,0.991-3.685,0.991-6.328V81.219c0-0.692-0.281-1.322-0.848-1.89
			c-0.569-0.566-1.197-0.849-1.892-0.849h-5.004c-0.504,0-0.991,0.157-1.465,0.471c-0.471,0.317-0.836,0.726-1.086,1.229h-9.824
			c0.251-0.441,0.441-0.882,0.569-1.324c0.376-1.51,0.249-2.612-0.379-3.305c2.895-1.07,5.668-2.219,8.312-3.448
			c2.645-1.229,4.879-2.439,6.708-3.637c0.88-0.567,1.369-1.243,1.463-2.031c0.094-0.787-0.205-1.495-0.896-2.125
			c-1.072-0.88-1.954-1.558-2.645-2.031c-0.695-0.472-1.576-0.992-2.647-1.558c-0.692-0.377-1.496-0.567-2.409-0.567
			c-0.912,0-1.686,0.473-2.313,1.417l-0.943,1.322h-37.218c-0.441,0-0.82,0.159-1.133,0.473c-0.317,0.317-0.474,0.661-0.474,1.039
			v1.229c0,0.441,0.157,0.818,0.474,1.134C183.295,67.082,183.674,67.239,184.115,67.239z M205.368,107.572h-10.579v-9.351h10.579
			V107.572z M205.368,93.876h-10.579v-9.352h10.579V93.876z M226.15,107.572h-10.484v-9.351h10.484V107.572z M226.15,84.524v9.352
			h-10.484v-9.352H226.15z M240.413,129.297c-1.637,0.064-3.746,0.143-6.329,0.236s-5.417,0.188-8.502,0.283
			c-3.085,0.094-6.28,0.158-9.586,0.188c-3.308,0.034-6.487,0.063-9.542,0.095c-3.054,0.032-5.855,0.032-8.408,0
			c-2.549-0.029-4.612-0.11-6.185-0.235c-2.206-0.126-4.079-0.269-5.622-0.427c-1.542-0.155-2.88-0.377-4.013-0.66
			c-1.135-0.283-2.142-0.646-3.023-1.086s-1.794-1.006-2.739-1.699V88.397c0-0.692-0.269-1.306-0.802-1.841
			c-0.536-0.536-1.151-0.803-1.843-0.803h-5.478c-0.694,0-1.322,0.267-1.888,0.803c-0.569,0.535-0.851,1.149-0.851,1.841v0.755
			h-7.556c-0.505,0-0.916,0.158-1.23,0.473c-0.315,0.315-0.472,0.724-0.472,1.228v1.606c0,0.503,0.156,0.929,0.472,1.274
			c0.314,0.348,0.725,0.519,1.23,0.519h7.556v31.928c-1.261,0.693-2.662,1.402-4.205,2.125c-1.543,0.727-3.29,1.527-5.243,2.409
			c-1.637,0.692-2.047,1.856-1.228,3.494c0.062,0.188,0.251,0.551,0.566,1.086c0.314,0.534,0.661,1.134,1.041,1.795
			c0.376,0.662,0.722,1.276,1.038,1.843c0.315,0.565,0.536,0.944,0.661,1.133c0.691,0.881,1.465,1.369,2.316,1.465
			c0.849,0.094,1.653-0.299,2.409-1.18c1.321-1.388,2.769-3.136,4.343-5.244c1.573-2.105,3.149-4.267,4.723-6.471
			c1.135,1.7,2.298,3.165,3.494,4.395c1.197,1.227,2.583,2.266,4.156,3.115c1.574,0.852,3.37,1.527,5.386,2.032
			c2.014,0.503,4.343,0.882,6.99,1.132c1.194,0.127,2.88,0.221,5.053,0.284s4.628,0.109,7.367,0.142
			c2.739,0.031,5.588,0.048,8.548,0.048s5.812-0.017,8.551-0.048c2.739-0.031,5.243-0.078,7.508-0.142
			c2.268-0.063,4.031-0.128,5.291-0.188c1.259-0.127,2.25-0.315,2.975-0.566c0.723-0.253,1.338-0.82,1.842-1.699
			c0.566-0.943,1.099-1.97,1.604-3.07c0.505-1.102,0.912-2.094,1.23-2.977c0.187-0.564,0.203-1.021,0.046-1.369
			C241.909,129.376,241.358,129.234,240.413,129.297z M166.027,69.27c1.038,2.11,1.935,4.172,2.69,6.187
			c0.566,1.953,1.432,3.024,2.599,3.212c1.163,0.188,2.344-0.251,3.542-1.322c0.693-0.629,1.291-1.338,1.795-2.125
			c0.502-0.787,0.882-1.465,1.133-2.031c0.63-1.384,0.912-2.487,0.851-3.306c-0.064-0.817-0.505-1.701-1.322-2.645
			c-0.505-0.566-1.261-1.212-2.268-1.937c-1.007-0.723-2.125-1.448-3.354-2.172c-1.227-0.724-2.519-1.417-3.872-2.078
			c-1.355-0.662-2.629-1.182-3.825-1.56c-0.63-0.188-1.212,0.034-1.748,0.662c-0.535,0.63-0.646,1.26-0.33,1.89
			C163.619,64.752,164.987,67.16,166.027,69.27z M332.227,106.911h-78.685c-0.504,0-0.944,0.188-1.321,0.565
			c-0.378,0.379-0.566,0.819-0.566,1.322v1.322c0,0.505,0.188,0.93,0.566,1.275c0.377,0.347,0.817,0.52,1.321,0.52h21.819
			c-1.26,2.268-2.771,4.802-4.533,7.604c-1.764,2.805-3.777,5.59-6.045,8.36h-3.023c-1.447,0-2.394,0.315-2.834,0.945
			c-0.441,0.629-0.6,1.604-0.471,2.928c0.502,2.771,0.911,4.688,1.227,5.763c0.379,1.256,0.912,2.045,1.605,2.36
			c0.691,0.313,1.764,0.377,3.212,0.188c3.399-0.441,7.319-0.99,11.761-1.653c4.438-0.66,8.879-1.386,13.319-2.171
			c4.438-0.788,8.643-1.559,12.608-2.315c3.967-0.756,7.146-1.448,9.54-2.077c1.007,1.572,1.872,3.006,2.599,4.297
			c0.722,1.291,1.338,2.408,1.842,3.354c0.817,1.702,1.874,2.662,3.166,2.883c1.288,0.219,2.469-0.081,3.541-0.898
			c0.944-0.693,1.716-1.416,2.312-2.172c0.602-0.756,1.214-1.793,1.845-3.115c0.756-1.639,1.021-3.024,0.805-4.157
			c-0.224-1.134-0.866-2.269-1.938-3.401c-0.82-0.943-2.048-2.031-3.687-3.259c-1.637-1.228-3.479-2.487-5.522-3.778
			c-2.049-1.287-4.221-2.55-6.521-3.776c-2.297-1.228-4.485-2.283-6.563-3.165c-0.376-0.125-0.771-0.094-1.182,0.095
			c-0.41,0.188-0.771,0.44-1.087,0.755c-0.314,0.317-0.534,0.68-0.66,1.088c-0.126,0.409-0.063,0.739,0.189,0.99
			c2.896,3.4,5.414,6.581,7.556,9.541l-34.1,0.566c3.336-2.395,6.5-4.961,9.492-7.699c2.991-2.738,5.811-5.43,8.455-8.075h39.956
			c1.194,0,1.795-0.599,1.795-1.795V108.8c0-0.503-0.176-0.944-0.519-1.321C333.154,107.1,332.729,106.911,332.227,106.911z
			 M311.541,94.158c0.376,0,0.738-0.156,1.087-0.471c0.343-0.315,0.519-0.692,0.519-1.134v-1.7c0-0.378-0.176-0.739-0.519-1.087
			c-0.349-0.346-0.711-0.519-1.087-0.519h-38.73c-0.439,0-0.816,0.173-1.131,0.519c-0.316,0.348-0.474,0.708-0.474,1.087v1.7
			c0,0.441,0.155,0.818,0.474,1.134c0.313,0.315,0.69,0.471,1.131,0.471H311.541z M335.061,85.186
			c-3.778-1.132-7.243-2.25-10.391-3.353c-3.147-1.101-6.188-2.361-9.116-3.778c-2.926-1.417-5.854-3.07-8.782-4.959
			c-2.931-1.89-6.095-4.187-9.496-6.896l1.514-2.739c0.376-0.692,0.501-1.338,0.376-1.936c-0.125-0.599-0.63-1.086-1.509-1.465
			c-1.387-0.568-2.708-1.007-3.969-1.323c-1.262-0.314-2.521-0.597-3.777-0.85c-1.322-0.251-2.332-0.188-3.023,0.188
			c-0.695,0.378-1.261,1.009-1.697,1.89c-1.832,3.527-3.875,6.787-6.144,9.777c-2.266,2.991-4.833,5.888-7.696,8.69
			c-2.869,2.802-6.078,5.558-9.636,8.265c-3.56,2.708-7.544,5.511-11.946,8.407c-0.254,0.188-0.381,0.457-0.381,0.802
			c0,0.346,0.096,0.709,0.285,1.085c0.186,0.378,0.426,0.695,0.706,0.946c0.285,0.252,0.615,0.315,0.993,0.188
			c4.785-1.26,9.382-2.943,13.79-5.054c4.405-2.109,8.502-4.454,12.28-7.037c3.776-2.581,7.191-5.336,10.246-8.264
			c3.056-2.929,5.623-5.872,7.701-8.832c2.268,3.652,4.611,6.927,7.035,9.824c2.424,2.896,4.849,5.447,7.274,7.651
			c2.425,2.205,4.784,4.078,7.085,5.621c2.296,1.542,4.453,2.818,6.47,3.825c1.448,0.756,2.69,1.119,3.73,1.086
			c1.036-0.032,2.094-0.582,3.166-1.653c1.066-1.07,2.059-2.172,2.975-3.306c0.911-1.133,1.747-2.172,2.504-3.117
			c0.69-1.007,0.976-1.794,0.851-2.362C336.35,85.941,335.878,85.502,335.061,85.186z M364.152,88.775h5.854
			c0.695,0,1.338-0.298,1.938-0.896c0.597-0.599,0.896-1.244,0.896-1.938h29.094c0.063,0.694,0.381,1.308,0.945,1.843
			c0.565,0.535,1.197,0.801,1.889,0.801h5.857c0.691,0,1.337-0.296,1.938-0.896c0.597-0.597,0.896-1.243,0.896-1.936V63.648
			c0-0.692-0.3-1.337-0.896-1.936c-0.602-0.598-1.246-0.898-1.938-0.898h-5.857c-0.69,0-1.338,0.3-1.935,0.898
			c-0.6,0.598-0.899,1.244-0.899,1.936v0.568h-29.094c-0.062-0.693-0.377-1.307-0.94-1.842c-0.567-0.535-1.197-0.804-1.894-0.804
			h-5.854c-0.693,0-1.34,0.3-1.938,0.898c-0.6,0.598-0.896,1.244-0.896,1.936V85.94c0,0.694,0.298,1.339,0.896,1.938
			C362.813,88.477,363.459,88.775,364.152,88.775z M372.842,68.75h29.094v12.657h-29.094V68.75z M424.133,130.761
			c-0.505-0.784-1.542-1.524-3.115-2.22c-1.196-0.439-2.867-0.958-5.008-1.559c-2.142-0.598-4.551-1.213-7.226-1.842
			c-2.678-0.63-5.525-1.242-8.548-1.841c-3.023-0.6-6.015-1.151-8.975-1.655c0.251-0.627,0.473-1.273,0.662-1.937
			c0.188-0.66,0.376-1.337,0.565-2.03c0.503-2.141,0.852-4.123,1.04-5.949c0.188-1.826,0.313-3.651,0.377-5.479
			c0.063-1.134-0.142-1.983-0.615-2.551c-0.472-0.566-1.272-0.912-2.408-1.039c-1.07-0.125-2.048-0.22-2.926-0.282
			c-0.884-0.063-1.923-0.095-3.118-0.095c-1.828,0-2.834,1.196-3.023,3.589c-0.126,1.26-0.235,2.787-0.331,4.58
			c-0.093,1.796-0.3,3.544-0.611,5.242c-0.379,2.018-1.291,4.047-2.74,6.095c-1.449,2.046-3.558,4.078-6.328,6.092
			c-2.771,2.017-6.299,3.984-10.58,5.904c-4.281,1.919-9.478,3.731-15.587,5.432c-0.377,0.125-0.612,0.407-0.707,0.849
			c-0.096,0.441-0.079,0.912,0.048,1.416c0.25,0.884,0.693,1.291,1.322,1.229c6.738-0.883,12.547-1.923,17.429-3.117
			c4.878-1.196,9.003-2.521,12.374-3.969c3.368-1.448,6.092-3.022,8.171-4.722c2.077-1.7,3.746-3.495,5.006-5.385
			c2.646,1.26,5.305,2.551,7.98,3.873c2.678,1.322,5.227,2.646,7.652,3.969c2.421,1.322,4.658,2.595,6.705,3.824
			c2.045,1.228,3.73,2.375,5.054,3.447c1.512,1.195,2.864,1.73,4.062,1.605c1.196-0.127,2.079-0.913,2.646-2.361
			c0.313-0.756,0.566-1.574,0.753-2.455c0.189-0.884,0.315-1.734,0.379-2.551C424.764,132.919,424.638,131.549,424.133,130.761z
			 M358.014,126.369h6.045c0.692,0,1.339-0.299,1.938-0.896c0.597-0.599,0.896-1.244,0.896-1.938V99.639h41.277v20.968
			c0,0.693,0.3,1.338,0.898,1.937c0.599,0.601,1.242,0.897,1.936,0.897h6.047c0.691,0,1.338-0.299,1.936-0.897
			c0.601-0.599,0.898-1.242,0.898-1.937V94.348c0-0.691-0.299-1.337-0.898-1.937c-0.598-0.597-1.243-0.897-1.936-0.897h-6.047
			c-0.691,0-1.337,0.3-1.936,0.897c-0.6,0.6-0.898,1.246-0.898,1.937v0.756h-41.277v-0.378c0-0.693-0.3-1.337-0.896-1.936
			c-0.6-0.598-1.245-0.898-1.938-0.898h-6.045c-0.692,0-1.34,0.3-1.937,0.898c-0.601,0.598-0.897,1.243-0.897,1.936v28.809
			c0,0.693,0.298,1.339,0.897,1.938C356.674,126.07,357.32,126.369,358.014,126.369z"/>
	</g>
</g>
</svg>
