<?xml version="1.0" encoding="utf-8"?>
<!-- Generator: Adobe Illustrator 16.0.0, SVG Export Plug-In . SVG Version: 6.00 Build 0)  -->
<!DOCTYPE svg PUBLIC "-//W3C//DTD SVG 1.1//EN" "http://www.w3.org/Graphics/SVG/1.1/DTD/svg11.dtd">
<svg version="1.1" id="图层_1" xmlns="http://www.w3.org/2000/svg" xmlns:xlink="http://www.w3.org/1999/xlink" x="0px" y="0px"
	 width="39px" height="39px" viewBox="0 0 39 39" enable-background="new 0 0 39 39" xml:space="preserve">
<g>
	<g>
		<circle fill-rule="evenodd" clip-rule="evenodd" fill="#FFAA00" cx="19.5" cy="19.5" r="19.5"/>
	</g>
</g>
<path fill="#FFFFFF" d="M20.953,8.252l2.515,5.313c0.23,0.5,0.69,0.838,1.217,0.919l5.611,0.852c1.325,0.203,1.852,1.906,0.892,2.88
	l-4.056,4.151c-0.378,0.393-0.554,0.945-0.459,1.501l0.959,5.84c0.23,1.38-1.162,2.435-2.352,1.785l-5.029-2.771
	c-0.474-0.257-1.028-0.257-1.501,0l-5.016,2.758c-1.189,0.649-2.569-0.404-2.352-1.784l0.959-5.841
	c0.095-0.554-0.081-1.108-0.459-1.501l-4.07-4.124c-0.959-0.974-0.433-2.677,0.893-2.88l5.611-0.852
	c0.527-0.081,0.987-0.419,1.217-0.919l2.515-5.313C18.642,6.995,20.358,6.995,20.953,8.252z"/>
</svg>
