<?xml version="1.0" encoding="utf-8"?>
<!-- Generator: Adobe Illustrator 16.0.0, SVG Export Plug-In . SVG Version: 6.00 Build 0)  -->
<!DOCTYPE svg PUBLIC "-//W3C//DTD SVG 1.1//EN" "http://www.w3.org/Graphics/SVG/1.1/DTD/svg11.dtd">
<svg version="1.1" id="图层_1" xmlns="http://www.w3.org/2000/svg" xmlns:xlink="http://www.w3.org/1999/xlink" x="0px" y="0px"
	 width="100px" height="100px" viewBox="0 0 100 100" enable-background="new 0 0 100 100" xml:space="preserve">
<g id="房子">
	<path fill="#CCCCCC" d="M9.091,0h81.818C95.93,0,100,4.071,100,9.091v81.818c0,5.022-4.07,9.091-9.091,9.091H9.091
		C4.072,100,0,95.932,0,90.909V9.091C0,4.071,4.072,0,9.091,0z"/>
	<path fill="#FFFFFF" d="M55.82,16.235H44.18L16.74,33.281v10.81l27.855-16.63h10.809l27.854,16.63v-10.81L55.82,16.235z"/>
	<path fill="#FFFFFF" d="M44.803,32.865l-22.45,13.72v36.171h55.295V47L56.027,32.865H44.803z M38.151,77.352h-9.978v-9.979h9.978
		V77.352z M38.151,63.215h-9.978v-9.979h9.978V63.215z M54.781,77.352h-9.979v-9.979h9.979V77.352z M54.781,63.215h-9.979v-9.979
		h9.979V63.215z M61.018,67.373h9.979v9.979h-9.979V67.373z"/>
</g>
</svg>
