<?xml version="1.0" encoding="utf-8"?>
<!-- Generator: Adobe Illustrator 16.0.0, SVG Export Plug-In . SVG Version: 6.00 Build 0)  -->
<!DOCTYPE svg PUBLIC "-//W3C//DTD SVG 1.1//EN" "http://www.w3.org/Graphics/SVG/1.1/DTD/svg11.dtd">
<svg version="1.1" id="实名" xmlns="http://www.w3.org/2000/svg" xmlns:xlink="http://www.w3.org/1999/xlink" x="0px" y="0px"
	 width="100px" height="100px" viewBox="0 0 100 100" enable-background="new 0 0 100 100" xml:space="preserve">
<path fill="#CCCCCC" d="M9.091,0h81.818C95.93,0,100,4.071,100,9.091v81.818c0,5.022-4.07,9.091-9.091,9.091H9.091
	C4.072,100,0,95.932,0,90.909V9.091C0,4.071,4.072,0,9.091,0z"/>
<path fill="#FFFFFF" d="M79.432,20.156H20.568c-4.783,0-8.704,3.947-8.704,8.858v41.96c0,4.867,3.879,8.869,8.704,8.869h58.864
	c4.778,0,8.703-3.949,8.703-8.859V28.979C88.143,24.103,84.256,20.156,79.432,20.156z M66.809,33.435
	c4.696,0,8.543,3.913,8.543,8.691c0,4.789-3.841,8.694-8.543,8.694c-4.693,0-8.541-3.916-8.541-8.694
	C58.268,37.348,62.113,33.435,66.809,33.435z M45.117,63.854H24.94c-1.185,0-2.169-0.992-2.169-2.201c0-1.204,0.978-2.2,2.169-2.2
	h20.135c1.182,0,2.169,0.996,2.169,2.2C47.244,62.852,46.299,63.854,45.117,63.854z M45.117,51.371H24.94
	c-1.185,0-2.169-0.997-2.169-2.202s0.978-2.202,2.169-2.202h20.135c1.182,0,2.169,0.998,2.169,2.202S46.299,51.371,45.117,51.371z
	 M45.117,39.64H24.94c-1.185,0-2.169-0.998-2.169-2.204s0.978-2.202,2.169-2.202h20.135c1.182,0,2.169,0.996,2.169,2.202
	S46.299,39.64,45.117,39.64z M66.809,64.684c-9.026,0-13.031-2.08-13.031-2.873c0-1.162,0.322-2.455,0.856-3.703
	c2.001-4.866,6.664-7.532,11.443-6.991c0.288,0.045,0.524,0.045,0.815,0.045c0.205,0,0.45,0,0.654-0.045
	c4.824-0.417,9.521,2.202,11.485,7.114c0.491,1.246,0.815,2.496,0.815,3.617C79.885,62.645,75.844,64.684,66.809,64.684
	L66.809,64.684z"/>
</svg>
