<?xml version="1.0" encoding="utf-8"?>
<!-- Generator: Adobe Illustrator 16.0.0, SVG Export Plug-In . SVG Version: 6.00 Build 0)  -->
<!DOCTYPE svg PUBLIC "-//W3C//DTD SVG 1.1//EN" "http://www.w3.org/Graphics/SVG/1.1/DTD/svg11.dtd">
<svg version="1.1" id="图层_1" xmlns="http://www.w3.org/2000/svg" xmlns:xlink="http://www.w3.org/1999/xlink" x="0px" y="0px"
	 width="100px" height="100px" viewBox="0 0 100 100" enable-background="new 0 0 100 100" xml:space="preserve">
<g id="手机">
	<path fill="#5DD1A4" d="M9.091,0h81.818C95.93,0,100,4.071,100,9.091v81.818c0,5.022-4.07,9.091-9.091,9.091H9.091
		C4.072,100,0,95.932,0,90.909V9.091C0,4.071,4.072,0,9.091,0z"/>
	<path fill="#FFFFFF" d="M64.682,17.256H35.314c-4.273,0-7.826,3.319-7.826,7.331V75.41c0,4.035,3.553,7.335,7.826,7.335h29.368
		c4.277,0,7.83-3.304,7.83-7.335V24.586C72.512,20.575,68.96,17.256,64.682,17.256z M45.543,19.565h8.919
		c0.411,0,0.74,0.312,0.74,0.698c0,0.385-0.329,0.697-0.74,0.697h-8.919c-0.411,0-0.745-0.312-0.745-0.697
		C44.798,19.877,45.132,19.565,45.543,19.565z M50.022,81.631c-1.56,0-2.955-1.209-2.955-2.738c0-1.523,1.396-2.742,2.955-2.742
		c1.641,0,2.912,1.219,2.912,2.742C52.934,80.422,51.668,81.631,50.022,81.631z M67.712,73.393h-35.42V23.715h35.42V73.393z"/>
</g>
</svg>
