<?xml version="1.0" encoding="utf-8"?>
<!-- Generator: Adobe Illustrator 19.0.0, SVG Export Plug-In . SVG Version: 6.00 Build 0)  -->
<svg version="1.1" id="图层_1" xmlns="http://www.w3.org/2000/svg" xmlns:xlink="http://www.w3.org/1999/xlink" x="0px" y="0px"
	 viewBox="0 0 100 100" style="enable-background:new 0 0 100 100;" xml:space="preserve">
<style type="text/css">
	.st0{fill:#CCCCCC;}
	.st1{fill:#FFFFFF;}
</style>
<g id="手机">
	<path class="st0" d="M9.1,0h81.8c5,0,9.1,4.1,9.1,9.1v81.8c0,5-4.1,9.1-9.1,9.1H9.1c-5,0-9.1-4.1-9.1-9.1V9.1C0,4.1,4.1,0,9.1,0z"
		/>
	<g>
		<path class="st1" d="M26.4,30.4h9.9c-1.3-1.8-2.5-3.5-3.9-5.2l6.5-2.9l5.7,6.6l-3.4,1.5h10.9c2.2-2.8,4.1-5.5,5.9-8.3l8.2,2.9
			c-1.3,1.4-2.9,3.1-4.9,5.3h10.2v27H52.9v3.8h23v6.7h-23v8.1h-7.6v-8.1H22.1v-6.7h23.1v-3.8H26.4V30.4z M33.6,41.1h11.6v-4.4H33.6
			V41.1z M33.6,51.1h11.6v-4.4H33.6V51.1z M64.5,36.7H52.9v4.4h11.6V36.7z M64.5,51.1v-4.4H52.9v4.4H64.5z"/>
	</g>
</g>
</svg>
