<?xml version="1.0" encoding="utf-8"?>
<!-- Generator: Adobe Illustrator 16.0.0, SVG Export Plug-In . SVG Version: 6.00 Build 0)  -->
<!DOCTYPE svg PUBLIC "-//W3C//DTD SVG 1.1//EN" "http://www.w3.org/Graphics/SVG/1.1/DTD/svg11.dtd">
<svg version="1.1" id="图层_1" xmlns="http://www.w3.org/2000/svg" xmlns:xlink="http://www.w3.org/1999/xlink" x="0px" y="0px"
	 width="100px" height="100px" viewBox="0 0 100 100" enable-background="new 0 0 100 100" xml:space="preserve">
<g id="qq">
	<path fill="#CCCCCC" d="M9.091,0h81.818C95.93,0,100,4.071,100,9.091v81.818c0,5.022-4.07,9.091-9.091,9.091H9.091
		C4.072,100,0,95.932,0,90.909V9.091C0,4.071,4.072,0,9.091,0z"/>
	<path fill="#FFFFFF" d="M75.014,50.486c-2.789,2.687-11.188,9.437-25.188,9.219c-2.478-0.037-4.931-0.281-7.291-0.725l-0.323-0.063
		l-0.03,0.317c-0.165,1.806-0.203,4.229-0.23,6c-0.016,0.996-0.029,1.781-0.058,2.035c-0.097,0.813-0.383,0.932-1.953,1.222
		c-0.232,0.044-0.489,0.065-0.764,0.065c-2.514-0.002-5.895-1.813-6.57-2.19c-0.476-3.373,0.529-8.522,0.853-10.036l0.046-0.217
		l-0.206-0.098c-4.53-2.127-7.388-4.602-8.592-5.769l-0.101-0.274c0.452-2.59,1.202-5.184,2.248-7.721
		c1.437,2.939,8.534,10.53,21.555,10.53c13.101,0,23.184-5.014,24.942-9.843c0.86,2.236,1.498,4.519,1.916,6.804L75.014,50.486z
		 M75.848,49.632c-0.479-2.609-1.234-5.214-2.277-7.748l-0.219-0.533c1.043-18.678-11.045-26.706-23.499-26.706
		c-10.829,0-23.292,7.668-22.996,26.63l-0.079,0.035c-0.096,0.042-0.163,0.089-0.213,0.144l-0.049,0.078
		c-1.104,2.582-1.912,5.229-2.41,7.875c-1.316,1.731-8.785,12.219-3.332,20.638c0,0,1.458,1.559,4.805-5.021l0.001-0.002
		c1.581,4.012,4.13,7.317,7.248,9.867c-3.325,0.73-5.75,2.079-6.398,3.685c-0.419,0.518-0.657,1.067-0.657,1.646
		c0,2.838,5.503,5.139,12.292,5.139c5.742,0,9.941-2.028,11.101-4.369c0.324,0.014,0.647,0.019,0.97,0.019
		c0.055,0,0.105-0.002,0.158-0.002c0.904,2.464,5.983,4.354,12.134,4.354c6.787,0,11.439-2.832,11.439-5.67
		c0-0.047-0.014-0.092-0.014-0.138c0-0.038,0.014-0.079,0.014-0.118c0-1.955-2.618-3.656-6.469-4.523
		c3.06-2.535,5.547-5.834,7.068-9.848c3.342,6.559,4.797,5.006,4.797,5.006C84.518,61.95,77.574,51.906,75.848,49.632z"/>
</g>
</svg>
